<?xml version="1.0" encoding="UTF-8" standalone="no"?>
<svg
   width="256"
   height="256"
   version="1.1"
   id="svg2"
   sodipodi:docname="BoneMapHumanLeftFoot.svg"
   xml:space="preserve"
   inkscape:version="1.4.3 (0d15f75042, 2025-12-25)"
   xmlns:inkscape="http://www.inkscape.org/namespaces/inkscape"
   xmlns:sodipodi="http://sodipodi.sourceforge.net/DTD/sodipodi-0.dtd"
   xmlns="http://www.w3.org/2000/svg"
   xmlns:svg="http://www.w3.org/2000/svg"><defs
     id="defs2" /><sodipodi:namedview
     id="namedview2"
     pagecolor="#505050"
     bordercolor="#eeeeee"
     borderopacity="1"
     inkscape:showpageshadow="0"
     inkscape:pageopacity="0"
     inkscape:pagecheckerboard="0"
     inkscape:deskcolor="#505050"
     inkscape:zoom="23.313068"
     inkscape:cx="141.05822"
     inkscape:cy="74.829276"
     inkscape:window-width="2560"
     inkscape:window-height="1380"
     inkscape:window-x="0"
     inkscape:window-y="0"
     inkscape:window-maximized="1"
     inkscape:current-layer="svg2" /><path
     fill="#3f3f3f"
     d="M0 0h256v256H0V0Z"
     id="path1"
     style="opacity:1" /><path
     style="fill:#a9a9a9;fill-opacity:1;stroke:#aaaaa9;stroke-width:0;stroke-linecap:round;stroke-miterlimit:4.4;stroke-dasharray:none;stroke-dashoffset:0;stroke-opacity:1;paint-order:stroke fill markers"
     d="m 127.44519,236.88372 c -25.3816,-0.60874 -27.08184,-19.13615 -27.29585,-28.04224 -0.468319,-19.48876 7.83102,-32.68179 5.68926,-51.06522 -2.14176,-18.38343 -20.016876,-40.96706 -20.140623,-57.56619 -0.164676,-22.089117 1.819099,-19.606997 1.833115,-27.065848 0.01402,-7.458851 -1.834685,-14.22949 -3.198834,-21.075417 -1.25758,-6.31111 2.429695,-28.730329 16.680482,-30.562463 13.52808,-1.739221 14.82074,23.649081 8.57394,33.286997 -6.2468,9.637916 -2.11493,19.77724 1.64773,19.910865 2.80441,0.09959 5.3547,-9.322665 5.43329,-15.435062 0.0805,-6.25798 3.28135,-8.343761 2.20084,-13.263867 -1.35093,-6.15152 -2.45009,-18.076334 7.86623,-15.703708 12.04993,2.771334 6.14188,12.828059 4.34748,17.791012 -1.58728,4.390088 0.49745,6.687835 -1.31423,12.532418 -1.67668,5.409037 -1.77688,10.343409 0.52233,14.336574 2.90583,-2.012357 4.60436,-4.501627 4.40134,-11.311909 -0.16271,-5.458011 1.4885,-5.015554 0.81599,-11.214035 -0.54041,-4.98094 2.51634,-14.630045 8.34714,-12.277643 9.84993,3.973894 5.5698,11.82617 4.10504,15.349275 -1.91496,4.605966 -0.60571,7.430132 -1.8047,10.837718 -1.41433,4.019592 -0.91795,8.228771 -0.1863,11.990402 2.57056,-0.628741 3.80686,-4.133051 3.99753,-6.356907 0.37023,-4.318271 1.79693,-6.020808 1.63144,-10.554681 -0.0753,-2.062593 -0.29043,-13.808476 7.47217,-10.536304 5.37978,2.267742 7.31902,8.60835 4.54778,13.670971 -1.9269,3.520138 -0.17126,8.139349 -2.02261,11.561959 -2.1081,3.89726 -0.62156,8.981615 -0.27508,10.849346 1.31529,-1.109702 2.22079,-2.801681 2.27672,-3.877458 0.12362,-2.378008 2.28909,-4.640789 2.03257,-8.309214 -0.18001,-2.57431 1.22566,-10.703443 5.61866,-8.99302 4.51204,1.75677 5.47265,9.386686 4.46039,12.482339 -1.12986,3.455286 -0.5463,8.07658 -1.7848,11.125655 -1.95229,4.806352 -0.87106,5.833509 -2.65484,17.961285 -1.86436,12.67569 2.59456,13.88667 -10.05516,43.1924 -5.23437,12.1265 1.3912,59.70775 -11.40623,73.59761 -8.69138,9.43333 -12.59346,12.96865 -22.36221,12.73436 z"
     id="path2"
     sodipodi:nodetypes="sssszssssssssscssssscssssscsssssssss" /></svg>
